<svg xmlns="http://www.w3.org/2000/svg" width="60" height="60" fill="#fff" fill-rule="evenodd" stroke-linejoin="round" stroke-miterlimit="2" clip-rule="evenodd" viewBox="0 0 1069 1069" id="space"><path d="M428.504,216.782c-74.553,25.012 -140.645,76.264 -183.024,149.665c-42.415,73.465 -53.737,156.409 -38.058,233.551c-19.167,20.228 -34.53,39.36 -45.516,56.763c-26.121,41.379 -28.541,77.049 -14.838,100.784c10.367,17.955 29.874,31.176 59.122,35.798c26.597,4.204 63.527,1.257 107.524,-9.114c16.404,14.46 34.469,27.507 54.121,38.853c19.653,11.347 39.984,20.468 60.709,27.444c13.017,43.288 28.93,76.744 45.869,97.676c18.627,23.018 39.83,33.302 60.563,33.302c27.407,-0 57.087,-19.931 79.863,-63.243c9.578,-18.215 18.465,-41.085 26.399,-67.799c74.647,-24.993 140.818,-76.27 183.233,-149.735c42.378,-73.401 53.717,-156.264 38.102,-233.336c31.033,-32.956 52.083,-63.502 61.751,-88.663c10.621,-27.64 8.925,-51.144 -1.441,-69.099c-13.704,-23.736 -45.805,-39.474 -94.701,-37.543c-20.532,0.812 -44.737,4.54 -71.78,11.004c-16.45,-14.52 -34.568,-27.614 -54.285,-38.997l-0.003,-0.002c-19.716,-11.383 -40.115,-20.527 -60.915,-27.513c-7.923,-26.652 -16.797,-49.479 -26.36,-67.665c-22.776,-43.312 -52.456,-63.243 -79.863,-63.243c-20.733,0 -41.936,10.284 -60.563,33.302c-16.956,20.953 -32.885,54.456 -45.909,97.81Zm141.565,649.201c-23.206,2.473 -46.739,2.535 -70.199,0.08c5.243,13.18 10.844,24.584 16.807,33.948c3.832,6.017 7.708,11.05 11.821,14.816c2.252,2.061 4.053,4.177 6.478,4.177c4.593,-0 7.587,-4.752 11.72,-9.801c8.481,-10.362 16.182,-25.074 23.373,-43.22Zm41.341,-464.784c-37.857,17.392 -77.48,37.86 -117.628,61.039c-88.225,50.937 -163.846,106.226 -216.892,156.369c20.142,61.245 62.011,115.601 122.195,150.349c60.185,34.747 128.193,43.828 191.304,30.65c16.902,-71.011 26.973,-164.145 26.973,-266.019c-0,-46.359 -2.085,-90.907 -5.952,-132.388Zm126.347,-48.643c-20.823,6.208 -43.041,13.921 -66.313,23.04c5.412,48.947 8.418,102.235 8.418,157.991c-0,89.551 -7.753,172.737 -20.772,241.77c45.004,-23.031 84.112,-58.868 111.254,-105.88c60.142,-104.169 43.393,-231.778 -32.587,-316.921Zm-508.191,316.837c-12.12,15.301 -21.011,29.326 -25.743,41.852c-2.306,6.104 -4.925,11.073 -2.628,15.05c1.212,2.1 3.945,2.602 6.856,3.521c5.318,1.68 11.614,2.52 18.742,2.83c11.09,0.482 23.767,-0.37 37.802,-2.419c-13.861,-19.098 -25.576,-39.514 -35.029,-60.834Zm360.797,-401.935c-111.727,-23.23 -230.614,26.07 -290.756,130.239c-27.142,47.012 -38.624,98.798 -36.067,149.288c53.274,-45.79 121.439,-94.098 198.992,-138.873c48.286,-27.878 95.938,-51.919 141.033,-71.706c-3.737,-24.705 -8.165,-47.804 -13.202,-68.948Zm250.041,130.365c8.82,-11.159 15.914,-21.735 21.053,-31.601c3.296,-6.327 5.716,-12.2 6.921,-17.645c0.659,-2.981 1.591,-5.599 0.378,-7.698c-2.296,-3.978 -7.908,-4.195 -14.347,-5.25c-13.195,-2.161 -29.757,-1.479 -49.026,1.355c13.857,19.099 25.567,39.514 35.021,60.839Zm-181.318,-106.028c1.265,6.705 2.479,13.544 3.644,20.515c6.612,-2.475 13.14,-4.842 19.588,-7.102c-3.733,-2.406 -7.553,-4.739 -11.451,-6.989l-0.003,-0.002c-3.897,-2.25 -7.827,-4.392 -11.778,-6.422Zm-89.051,-90.689c-7.18,-18.104 -14.87,-32.788 -23.339,-43.135c-4.133,-5.049 -7.127,-9.801 -11.72,-9.801c-2.425,0 -4.226,2.116 -6.478,4.177c-4.113,3.766 -7.989,8.799 -11.821,14.816c-5.975,9.384 -11.587,20.816 -16.841,34.033c23.203,-2.477 46.733,-2.542 70.199,-0.09Z"></path><path fill-opacity=".5" d="M284.976,833.847c18.253,0 33.073,14.82 33.073,33.073c-0,18.254 -14.82,33.074 -33.073,33.074c-18.254,-0 -33.074,-14.82 -33.074,-33.074c0,-18.253 14.82,-33.073 33.074,-33.073Zm521.361,-202.276c25.412,25.426 44.468,48.929 55.12,69.381c3.296,6.327 5.716,12.2 6.921,17.645c0.659,2.981 1.591,5.598 0.378,7.698c-2.296,3.978 -7.908,4.195 -14.347,5.25c-14.89,2.438 -34.066,1.257 -56.587,-2.551c-77.191,-13.051 -188.44,-57.317 -304.04,-124.058c-115.599,-66.742 -209.559,-140.953 -259.457,-201.277c-14.558,-17.599 -25.17,-33.616 -30.502,-47.73c-2.306,-6.104 -4.925,-11.073 -2.628,-15.05c1.212,-2.1 3.945,-2.602 6.856,-3.522c5.318,-1.679 11.614,-2.519 18.742,-2.829c23.038,-1.001 52.92,3.75 87.645,13.045c16.661,4.46 33.808,-5.446 38.267,-22.107c4.46,-16.661 -5.446,-33.808 -22.107,-38.268c-51.459,-13.773 -94.477,-18.098 -124.408,-13.367c-29.248,4.622 -48.755,17.843 -59.122,35.798c-13.703,23.735 -11.283,59.405 14.838,100.784c43.508,68.923 155.667,164.957 300.626,248.649c144.959,83.692 284.207,132.808 365.65,136.026c48.896,1.931 80.997,-13.807 94.701,-37.543c10.366,-17.955 12.062,-41.459 1.441,-69.099c-10.869,-28.287 -36.123,-63.379 -73.781,-101.057c-12.192,-12.199 -31.995,-12.204 -44.194,-0.012c-12.199,12.193 -12.204,31.995 -0.012,44.194Zm20.305,-506.057c18.254,-0 33.074,14.819 33.074,33.073c-0,18.254 -14.82,33.073 -33.074,33.073c-18.253,0 -33.073,-14.819 -33.073,-33.073c-0,-18.254 14.82,-33.073 33.073,-33.073Z"></path></svg>